<svg width="22" height="23" viewBox="0 0 22 23" fill="none" xmlns="http://www.w3.org/2000/svg">
<path d="M15.1753 5.51497C14.0213 4.57037 12.5726 4 10.9915 4C7.17742 4 4.1356 7.27493 4.1356 11.25C4.1356 15.2251 7.17742 18.5 10.9915 18.5C13.9965 18.5 16.5188 16.4589 17.4526 13.6582L17.6721 13H16.9783H11.4915V9.5H20.0254V9.54669H20.5254H20.956C21.0397 10.1022 21.0848 10.6708 21.0848 11.25C21.0848 17.2154 16.5376 22 10.9915 22C5.44548 22 0.898315 17.2154 0.898315 11.25C0.898315 5.28457 5.44548 0.5 10.9915 0.5C13.4697 0.5 15.7371 1.45917 17.4984 3.04788L15.1753 5.51497Z" fill="#FFC107" stroke="#645F8D"/>
<path d="M17.4984 3.04788L15.1754 5.51497C14.0214 4.57037 12.5727 4 10.9916 4C8.32227 4 6.03071 5.60964 4.89821 7.93334L2.25527 5.8749C4.00663 2.65223 7.26926 0.5 10.9916 0.5C13.4697 0.5 15.7371 1.45917 17.4984 3.04788Z" fill="#FF3D00" stroke="#645F8D"/>
<path d="M17.3493 19.5828L14.7877 17.2807C13.6694 18.0735 12.3486 18.5012 10.9911 18.5M17.3493 19.5828L10.9915 18M17.3493 19.5828C15.6096 21.0925 13.4003 22 10.9915 22C7.21861 22 3.92063 19.7867 2.18762 16.4902M10.9911 18.5L10.9915 18M10.9911 18.5C10.9913 18.5 10.9914 18.5 10.9915 18.5V18M10.9911 18.5C8.2409 18.4998 5.89462 16.7894 4.80116 14.3517M10.9915 18C8.41327 18 6.19909 16.3663 5.20304 14.0229L4.80116 14.3517M4.80116 14.3517C4.73003 14.1931 4.66421 14.0315 4.60392 13.8671L5.01536 13.5304M4.80116 14.3517L2.18762 16.4902M2.18762 16.4902C2.12697 16.3748 2.06824 16.2581 2.01146 16.1402L1.56091 16.357L1.87754 16.7439L2.18762 16.4902Z" fill="#4CAF50" stroke="#645F8D"/>
<path d="M18.18 18.8175C18.1498 18.8491 18.1209 18.8788 18.0935 18.9064L15.5686 16.6374C16.421 15.8269 17.069 14.8031 17.4524 13.6589L17.6732 13H16.9783H11.4916V9.5H20.0255V9.54669H20.5255H20.9561C21.0398 10.1022 21.0848 10.6708 21.0848 11.25C21.0848 13.9474 20.1931 15.9933 19.3313 17.338C18.9001 18.0109 18.4772 18.5066 18.18 18.8175Z" fill="#1976D2" stroke="#645F8D"/>
</svg>
